{"accessors":[{"bufferView":0,"byteOffset":0,"componentType":5126,"count":4,"max":[-0.08395536133326642,0.01,0.055093011000001364],"min":[-0.08395536133326642,0.0,-0.020251849114427505],"type":"VEC3"},{"bufferView":0,"byteOffset":48,"componentType":5126,"count":16,"max":[-0.06696516744769529,0.01,0.07208320488557124],"min":[-0.08395536133326642,0.0,0.055093011000001364],"type":"VEC3"},{"bufferView":0,"byteOffset":240,"componentType":5126,"count":4,"max":[0.1045332189999991,0.01,0.07208320488557124],"min":[-0.06696516744769529,0.0,0.07208320488557124],"type":"VEC3"},{"bufferView":0,"byteOffset":288,"componentType":5126,"count":16,"max":[0.12152341288557085,0.01,0.07208320488557124],"min":[0.1045332189999991,0.0,0.055093010999999095],"type":"VEC3"},{"bufferView":0,"byteOffset":480,"componentType":5126,"count":4,"max":[0.12152341288557125,0.01,0.055093010999999095],"min":[0.12152341288557085,0.0,-0.020251849114427848],"type":"VEC3"},{"bufferView":0,"byteOffset":528,"componentType":5126,"count":16,"max":[0.12152341288557125,0.01,-0.020251849114427848],"min":[0.10453321900000097,0.0,-0.03724204299999955],"type":"VEC3"},{"bufferView":0,"byteOffset":720,"componentType":5126,"count":4,"max":[0.10453321900000097,0.01,-0.03724204299999955],"min":[-0.06696516744769422,0.0,-0.03724204299999955],"type":"VEC3"},{"bufferView":0,"byteOffset":768,"componentType":5126,"count":16,"max":[-0.06696516744769422,0.01,-0.020251849114427505],"min":[-0.08395536133326642,0.0,-0.03724204299999955],"type":"VEC3"},{"bufferView":0,"byteOffset":960,"componentType":5126,"count":32,"max":[0.12152341288557125,0.0,0.07208320488557124],"min":[-0.08395536133326642,0.0,-0.03724204299999955],"type":"VEC3"},{"bufferView":0,"byteOffset":1344,"componentType":5126,"count":32,"max":[0.12152341288557125,0.01,0.07208320488557124],"min":[-0.08395536133326642,0.01,-0.03724204299999955],"type":"VEC3"},{"bufferView":1,"byteOffset":0,"componentType":5126,"count":4,"type":"VEC3"},{"bufferView":1,"byteOffset":48,"componentType":5126,"count":16,"type":"VEC3"},{"bufferView":1,"byteOffset":240,"componentType":5126,"count":4,"type":"VEC3"},{"bufferView":1,"byteOffset":288,"componentType":5126,"count":16,"type":"VEC3"},{"bufferView":1,"byteOffset":480,"componentType":5126,"count":4,"type":"VEC3"},{"bufferView":1,"byteOffset":528,"componentType":5126,"count":16,"type":"VEC3"},{"bufferView":1,"byteOffset":720,"componentType":5126,"count":4,"type":"VEC3"},{"bufferView":1,"byteOffset":768,"componentType":5126,"count":16,"type":"VEC3"},{"bufferView":1,"byteOffset":960,"componentType":5126,"count":32,"type":"VEC3"},{"bufferView":1,"byteOffset":1344,"componentType":5126,"count":32,"type":"VEC3"},{"bufferView":2,"byteOffset":0,"componentType":5123,"count":6,"type":"SCALAR"},{"bufferView":2,"byteOffset":12,"componentType":5123,"count":42,"type":"SCALAR"},{"bufferView":2,"byteOffset":96,"componentType":5123,"count":6,"type":"SCALAR"},{"bufferView":2,"byteOffset":108,"componentType":5123,"count":42,"type":"SCALAR"},{"bufferView":2,"byteOffset":192,"componentType":5123,"count":6,"type":"SCALAR"},{"bufferView":2,"byteOffset":204,"componentType":5123,"count":42,"type":"SCALAR"},{"bufferView":2,"byteOffset":288,"componentType":5123,"count":6,"type":"SCALAR"},{"bufferView":2,"byteOffset":300,"componentType":5123,"count":42,"type":"SCALAR"},{"bufferView":2,"byteOffset":384,"componentType":5123,"count":90,"type":"SCALAR"},{"bufferView":2,"byteOffset":564,"componentType":5123,"count":90,"type":"SCALAR"}],"asset":{"generator":"Open CASCADE Technology 7.8 [dev.opencascade.org]","version":"2.0"},"bufferViews":[{"buffer":0,"byteLength":1728,"byteOffset":0,"byteStride":12,"target":34962},{"buffer":0,"byteLength":1728,"byteOffset":1728,"byteStride":12,"target":34962},{"buffer":0,"byteLength":744,"byteOffset":3456,"target":34963}],"buffers":[{"byteLength":4200,"uri":"cad-alarm-clock.bin"}],"materials":[{"name":"mat_0","pbrMetallicRoughness":{"baseColorFactor":[0.16826939582824707,0.19120168685913086,0.2158605307340622,1.0]},"doubleSided":true}],"meshes":[{"name":"Body","primitives":[{"attributes":{"NORMAL":10,"POSITION":0},"indices":20,"material":0,"mode":4},{"attributes":{"NORMAL":11,"POSITION":1},"indices":21,"material":0,"mode":4},{"attributes":{"NORMAL":12,"POSITION":2},"indices":22,"material":0,"mode":4},{"attributes":{"NORMAL":13,"POSITION":3},"indices":23,"material":0,"mode":4},{"attributes":{"NORMAL":14,"POSITION":4},"indices":24,"material":0,"mode":4},{"attributes":{"NORMAL":15,"POSITION":5},"indices":25,"material":0,"mode":4},{"attributes":{"NORMAL":16,"POSITION":6},"indices":26,"material":0,"mode":4},{"attributes":{"NORMAL":17,"POSITION":7},"indices":27,"material":0,"mode":4},{"attributes":{"NORMAL":18,"POSITION":8},"indices":28,"material":0,"mode":4},{"attributes":{"NORMAL":19,"POSITION":9},"indices":29,"material":0,"mode":4}]}],"nodes":[{"mesh":0,"name":"Body"}],"scene":0,"scenes":[{"nodes":[0]}]}